<?xml version="1.0" encoding="UTF-8" standalone="no"?>
<svg
   xmlns:dc="http://purl.org/dc/elements/1.1/"
   xmlns:cc="http://creativecommons.org/ns#"
   xmlns:rdf="http://www.w3.org/1999/02/22-rdf-syntax-ns#"
   xmlns:svg="http://www.w3.org/2000/svg"
   xmlns="http://www.w3.org/2000/svg"
   xmlns:sodipodi="http://sodipodi.sourceforge.net/DTD/sodipodi-0.dtd"
   xmlns:inkscape="http://www.inkscape.org/namespaces/inkscape"
   sodipodi:docname="button-delete-card-hover.svg"
   inkscape:version="1.0 (4035a4fb49, 2020-05-01)"
   id="svg80"
   version="1.1"
   viewBox="0 0 4.7625 4.8850299"
   height="0.19232401in"
   width="0.1875in">
  <defs
     id="defs74" />
  <sodipodi:namedview
     fit-margin-bottom="0"
     fit-margin-right="0"
     fit-margin-left="0"
     fit-margin-top="0"
     units="in"
     inkscape:window-maximized="0"
     inkscape:window-y="0"
     inkscape:window-x="0"
     inkscape:window-height="1020"
     inkscape:window-width="1920"
     showgrid="false"
     inkscape:document-rotation="0"
     inkscape:current-layer="layer1"
     inkscape:document-units="mm"
     inkscape:cy="45.126372"
     inkscape:cx="56.903575"
     inkscape:zoom="5.6"
     inkscape:pageshadow="2"
     inkscape:pageopacity="0.0"
     borderopacity="1.0"
     bordercolor="#666666"
     pagecolor="#ffffff"
     id="base" />
  <metadata
     id="metadata77">
    <rdf:RDF>
      <cc:Work
         rdf:about="">
        <dc:format>image/svg+xml</dc:format>
        <dc:type
           rdf:resource="http://purl.org/dc/dcmitype/StillImage" />
        <dc:title></dc:title>
      </cc:Work>
    </rdf:RDF>
  </metadata>
  <g
     transform="translate(-103.45208,-147.58194)"
     id="layer1"
     inkscape:groupmode="layer"
     inkscape:label="Слой 1">
    <g
       style="fill:#999999"
       id="g105">
      <path
         style="fill:#999999;stroke-width:0.264583"
         id="path40"
         fill="white"
         d="m 107.87594,148.08464 h -1.35996 v -0.16933 c 0,-0.18521 -0.15049,-0.33337 -0.33864,-0.33337 h -0.68265 c -0.18813,0 -0.33864,0.14816 -0.33864,0.33337 v 0.16933 h -1.36532 c -0.18814,0 -0.33865,0.14817 -0.33865,0.33338 0,0.18521 0.15051,0.33338 0.33865,0.33338 h 4.08521 c 0.18815,0 0.33864,-0.14817 0.33864,-0.33338 0,-0.18521 -0.15049,-0.33338 -0.33864,-0.33338 z" />
      <path
         style="fill:#999999;stroke-width:0.264583"
         id="path20"
         fill="#ffffff"
         d="m 104.05524,152.16534 c 0.0161,0.17463 0.16126,0.30163 0.33865,0.30163 h 2.7844 c 0.17737,0 0.3225,-0.1323 0.33864,-0.30163 l 0.31175,-3.21734 h -4.0852 z" />
    </g>
  </g>
</svg>
